<svg width="50" height="50" viewBox="0 0 50 50" fill="none" xmlns="http://www.w3.org/2000/svg">
<g clip-path="url(#clip0_1704_23)">
<path d="M25 50C38.8071 50 50 38.8071 50 25C50 11.1929 38.8071 0 25 0C11.1929 0 0 11.1929 0 25C0 38.8071 11.1929 50 25 50Z" fill="#4B4B4B"/>
<path d="M32.8993 8.50488L17.1894 38.798L28.1862 49.7987C40.2948 48.2584 49.6986 38.0567 49.9924 25.6003L32.8993 8.50488Z" fill="#515151"/>
<path d="M18.1273 39.1389H31.8727C32.6795 39.1389 33.3334 38.4848 33.3334 37.6783V9.54392C33.3334 8.73719 32.6793 8.08331 31.8727 8.08331H18.1273C17.3206 8.08331 16.6667 8.73735 16.6667 9.54392V37.6783C16.6667 38.485 17.3206 39.1389 18.1273 39.1389Z" fill="#161616"/>
<path d="M31.9024 9.96552H18.0977V35.8813H31.9024V9.96552Z" fill="#D0D5D9"/>
<path d="M25 38.3838C25.5114 38.3838 25.9259 37.9693 25.9259 37.4579C25.9259 36.9465 25.5114 36.532 25 36.532C24.4886 36.532 24.0741 36.9465 24.0741 37.4579C24.0741 37.9693 24.4886 38.3838 25 38.3838Z" fill="#161616"/>
</g>
<defs>
<clipPath id="clip0_1704_23">
<rect width="50" height="50" fill="white"/>
</clipPath>
</defs>
</svg>
